# --------------------Vectorworks 2016 ------------------- #

mtllib 121203 slides.mtl

o None1
v -0.5 1.5 4.30077e-15
v -0.5 -1.5 4.48447e-15
v 0.5 -1.5 4.82898e-15
v 0.5 1.5 4.64528e-15
v 4.88581 -1.5 -13.8496
v 5.50431 -1.5 -14.4957
v 6.21142 -1.5 -13.7886
v 5.62309 -1.5 -13.174
v 6.82285 -1.5 -15.7039
v 7.52039 -1.5 -16.2637
v 8.12915 -1.5 -15.4704
v 7.46564 -1.5 -14.9379
v 8.24168 -1.5 -16.7926
v 8.98536 -1.5 -17.2895
v 9.52266 -1.5 -16.4461
v 8.81526 -1.5 -15.9735
v -0.0140681 -1.5 -4.43701
v 0.198521 -1.5 -5.30579
v 1.16445 -1.5 -5.04697
v 0.962228 -1.5 -4.22057
v 0.448803 -1.5 -6.16447
v 0.736301 -1.5 -7.01141
v 1.67599 -1.5 -6.66939
v 1.40252 -1.5 -5.86376
v 1.81628 -1.5 -9.46585
v 2.24648 -1.5 -10.25
v 3.1125 -1.5 -9.75
v 2.70329 -1.5 -9.0041
v 2.71048 -1.5 -11.0146
v 3.20738 -1.5 -11.7583
v 4.02654 -1.5 -11.1847
v 3.55387 -1.5 -10.4773
v 3.73626 -1.5 -12.4796
v 4.29609 -1.5 -13.1771
v 5.06213 -1.5 -12.5344
v 4.52961 -1.5 -11.8708
v 6.1504 -1.5 -15.1142
v 6.82599 -1.5 -14.3769
v 0.796249 -1.5 -3.38614
v -0.188559 -1.5 -3.55979
v 1.06047 -1.5 -7.84501
v 1.98435 -1.5 -7.46233
v 9.75 -1.5 -17.7535
v 10.25 -1.5 -16.8875
v 2.327 -1.5 -8.24106
v 1.42069 -1.5 -8.66367
v 10.5342 -1.5 -18.1837
v 11.3363 -1.5 -18.5793
v 11.7589 -1.5 -17.673
v 10.9959 -1.5 -17.2967
v 16.4402 -1.5 -20.1886
v 17.3242 -1.5 -20.3246
v 17.4547 -1.5 -19.3332
v 16.6139 -1.5 -19.2038
v 19.1058 -1.5 -20.4805
v 20 -1.5 -20.5
v 20 -1.5 -19.5
v 19.1494 -1.5 -19.4814
v -0.421991 -1.5 -1.78669
v -0.32462 -1.5 -2.67579
v 0.666825 -1.5 -2.54526
v 0.574203 -1.5 -1.69954
v 12.155 -1.5 -18.9395
v 12.9886 -1.5 -19.2637
v 13.3306 -1.5 -18.324
v 12.5377 -1.5 -18.0157
v 13.8355 -1.5 -19.5512
v 14.6942 -1.5 -19.8015
v 14.953 -1.5 -18.8356
v 14.1362 -1.5 -18.5975
v 15.7794 -1.5 -19.0378
v 15.563 -1.5 -20.0141
v 18.3005 -1.5 -19.4258
v 18.2133 -1.5 -20.422
v 0.51856 -1.5 -0.850578
v -0.480489 -1.5 -0.894197
v 20 1.5 -19.5
v 20 1.5 -20.5
v 19.1058 1.5 -20.4805
v 18.2133 1.5 -20.422
v 17.3242 1.5 -20.3246
v 16.4402 1.5 -20.1886
v 15.563 1.5 -20.0141
v 14.6942 1.5 -19.8015
v 13.8355 1.5 -19.5512
v 12.9886 1.5 -19.2637
v 12.155 1.5 -18.9395
v 11.3363 1.5 -18.5793
v 10.5342 1.5 -18.1837
v 9.75 1.5 -17.7535
v 8.98536 1.5 -17.2895
v 8.24168 1.5 -16.7926
v 7.52039 1.5 -16.2637
v 6.82285 1.5 -15.7039
v 6.1504 1.5 -15.1142
v 5.50431 1.5 -14.4957
v 4.88581 1.5 -13.8496
v 4.29609 1.5 -13.1771
v 3.73626 1.5 -12.4796
v 3.20738 1.5 -11.7583
v 2.71048 1.5 -11.0146
v 2.24648 1.5 -10.25
v 1.81628 1.5 -9.46585
v 1.42069 1.5 -8.66367
v 1.06047 1.5 -7.84501
v 0.736301 1.5 -7.01141
v 0.448803 1.5 -6.16447
v 0.198521 1.5 -5.30579
v -0.0140681 1.5 -4.43701
v -0.188559 1.5 -3.55979
v -0.32462 1.5 -2.67579
v -0.421991 1.5 -1.78669
v -0.480489 1.5 -0.894197
v 5.62309 1.5 -13.174
v 6.21142 1.5 -13.7886
v 1.16445 1.5 -5.04697
v 1.40252 1.5 -5.86376
v 8.12915 1.5 -15.4704
v 8.81526 1.5 -15.9735
v 6.82599 1.5 -14.3769
v 7.46564 1.5 -14.9379
v 5.06213 1.5 -12.5344
v 4.02654 1.5 -11.1847
v 4.52961 1.5 -11.8708
v 2.327 1.5 -8.24106
v 2.70329 1.5 -9.0041
v 1.67599 1.5 -6.66939
v 0.796249 1.5 -3.38614
v 0.962228 1.5 -4.22057
v 10.25 1.5 -16.8875
v 10.9959 1.5 -17.2967
v 3.1125 1.5 -9.75
v 3.55387 1.5 -10.4773
v 1.98435 1.5 -7.46233
v 9.52266 1.5 -16.4461
v 0.666825 1.5 -2.54526
v 18.3005 1.5 -19.4258
v 19.1494 1.5 -19.4814
v 15.7794 1.5 -19.0378
v 16.6139 1.5 -19.2038
v 17.4547 1.5 -19.3332
v 14.953 1.5 -18.8356
v 13.3306 1.5 -18.324
v 14.1362 1.5 -18.5975
v 11.7589 1.5 -17.673
v 12.5377 1.5 -18.0157
v 0.51856 1.5 -0.850578
v 0.574203 1.5 -1.69954
vn -2.43605e-16 4.32978e-17 0.707107
vn 1.79976e-16 -0.707107 0
vn 0.707107 0 0
vn -0.0154255 0 -0.706939
vn -0.046247 0 -0.705593
vn -0.0769805 0 -0.702904
vn -0.107567 0 -0.698877
vn -0.13795 0 -0.69352
vn -0.168069 0 -0.686843
vn -0.197869 0 -0.678858
vn -0.227292 0 -0.669581
vn -0.256282 0 -0.659029
vn -0.284785 0 -0.647223
vn -0.312745 0 -0.634185
vn -0.34011 0 -0.619939
vn -0.366828 0 -0.604514
vn -0.392847 0 -0.587938
vn -0.418119 0 -0.570242
vn -0.442595 0 -0.551462
vn -0.466228 0 -0.531631
vn -0.488974 0 -0.510788
vn -0.510788 0 -0.488974
vn -0.531631 0 -0.466228
vn -0.551462 0 -0.442595
vn -0.570242 0 -0.418119
vn -0.587938 0 -0.392847
vn -0.604514 0 -0.366828
vn -0.619939 0 -0.34011
vn -0.634185 0 -0.312745
vn -0.647223 0 -0.284785
vn -0.659029 0 -0.256282
vn -0.669581 0 -0.227292
vn -0.678858 0 -0.197869
vn -0.686843 0 -0.168069
vn -0.69352 0 -0.13795
vn -0.698877 0 -0.107567
vn -0.702904 0 -0.0769805
vn -0.705593 0 -0.046247
vn -0.706939 -4.57148e-19 -0.0154255
vn 1.79976e-16 0.707107 0
vn 0.706939 1.44178e-18 0.0154255
vn 0.705593 3.84474e-18 0.046247
vn 0.702904 0 0.0769805
vn 0.698877 0 0.107567
vn 0.69352 0 0.13795
vn 0.686843 0 0.168069
vn 0.678858 0 0.197869
vn 0.669581 0 0.227292
vn 0.659029 0 0.256282
vn 0.647223 0 0.284785
vn 0.634185 0 0.312745
vn 0.619939 0 0.34011
vn 0.604514 0 0.366828
vn 0.587938 0 0.392847
vn 0.570242 0 0.418119
vn 0.551462 0 0.442595
vn 0.531631 0 0.466228
vn 0.510788 0 0.488974
vn 0.488974 0 0.510788
vn 0.466228 0 0.531631
vn 0.442595 0 0.551462
vn 0.418119 0 0.570242
vn 0.392847 0 0.587938
vn 0.366828 0 0.604514
vn 0.34011 0 0.619939
vn 0.312745 0 0.634185
vn 0.284785 0 0.647223
vn 0.256282 0 0.659029
vn 0.227292 0 0.669581
vn 0.197869 0 0.678858
vn 0.168069 0 0.686843
vn 0.13795 0 0.69352
vn 0.107567 0 0.698877
vn 0.0769805 0 0.702904
vn 0.046247 0 0.705593
vn 0.0154255 0 0.706939
vn 2.43605e-16 -4.32978e-17 -0.707107
vn -0.707107 0 0
vt 0 -0
usemtl Material_0
f 1//1 2//1 3//1
f 1//877 3//877 2//877
f 1//1 3//1 4//1
f 1//877 4//877 3//877
f 5//2 6//2 7//2
f 5//878 7//878 6//878
f 5//2 7//2 8//2
f 5//878 8//878 7//878
f 9//2 10//2 11//2
f 9//878 11//878 10//878
f 9//2 11//2 12//2
f 9//878 12//878 11//878
f 13//2 14//2 15//2
f 13//878 15//878 14//878
f 13//2 15//2 16//2
f 13//878 16//878 15//878
f 17//2 18//2 19//2
f 17//878 19//878 18//878
f 17//2 19//2 20//2
f 17//878 20//878 19//878
f 21//2 22//2 23//2
f 21//878 23//878 22//878
f 21//2 23//2 24//2
f 21//878 24//878 23//878
f 25//2 26//2 27//2
f 25//878 27//878 26//878
f 25//2 27//2 28//2
f 25//878 28//878 27//878
f 29//2 30//2 31//2
f 29//878 31//878 30//878
f 29//2 31//2 32//2
f 29//878 32//878 31//878
f 33//2 34//2 35//2
f 33//878 35//878 34//878
f 33//2 35//2 36//2
f 33//878 36//878 35//878
f 6//2 37//2 38//2
f 6//878 38//878 37//878
f 6//2 38//2 7//2
f 6//878 7//878 38//878
f 16//2 11//2 10//2
f 16//878 10//878 11//878
f 16//2 10//2 13//2
f 16//878 13//878 10//878
f 20//2 39//2 40//2
f 20//878 40//878 39//878
f 20//2 40//2 17//2
f 20//878 17//878 40//878
f 22//2 41//2 42//2
f 22//878 42//878 41//878
f 22//2 42//2 23//2
f 22//878 23//878 42//878
f 32//2 27//2 26//2
f 32//878 26//878 27//878
f 32//2 26//2 29//2
f 32//878 29//878 26//878
f 8//2 35//2 34//2
f 8//878 34//878 35//878
f 8//2 34//2 5//2
f 8//878 5//878 34//878
f 14//2 43//2 44//2
f 14//878 44//878 43//878
f 14//2 44//2 15//2
f 14//878 15//878 44//878
f 24//2 19//2 18//2
f 24//878 18//878 19//878
f 24//2 18//2 21//2
f 24//878 21//878 18//878
f 28//2 45//2 46//2
f 28//878 46//878 45//878
f 28//2 46//2 25//2
f 28//878 25//878 46//878
f 12//2 38//2 37//2
f 12//878 37//878 38//878
f 12//2 37//2 9//2
f 12//878 9//878 37//878
f 47//2 48//2 49//2
f 47//878 49//878 48//878
f 47//2 49//2 50//2
f 47//878 50//878 49//878
f 45//2 42//2 41//2
f 45//878 41//878 42//878
f 45//2 41//2 46//2
f 45//878 46//878 41//878
f 50//2 44//2 43//2
f 50//878 43//878 44//878
f 50//2 43//2 47//2
f 50//878 47//878 43//878
f 51//2 52//2 53//2
f 51//878 53//878 52//878
f 51//2 53//2 54//2
f 51//878 54//878 53//878
f 55//2 56//2 57//2
f 55//878 57//878 56//878
f 55//2 57//2 58//2
f 55//878 58//878 57//878
f 59//2 60//2 61//2
f 59//878 61//878 60//878
f 59//2 61//2 62//2
f 59//878 62//878 61//878
f 36//2 31//2 30//2
f 36//878 30//878 31//878
f 36//2 30//2 33//2
f 36//878 33//878 30//878
f 63//2 64//2 65//2
f 63//878 65//878 64//878
f 63//2 65//2 66//2
f 63//878 66//878 65//878
f 67//2 68//2 69//2
f 67//878 69//878 68//878
f 67//2 69//2 70//2
f 67//878 70//878 69//878
f 54//2 71//2 72//2
f 54//878 72//878 71//878
f 54//2 72//2 51//2
f 54//878 51//878 72//878
f 58//2 73//2 74//2
f 58//878 74//878 73//878
f 58//2 74//2 55//2
f 58//878 55//878 74//878
f 39//2 61//2 60//2
f 39//878 60//878 61//878
f 39//2 60//2 40//2
f 39//878 40//878 60//878
f 70//2 65//2 64//2
f 70//878 64//878 65//878
f 70//2 64//2 67//2
f 70//878 67//878 64//878
f 73//2 53//2 52//2
f 73//878 52//878 53//878
f 73//2 52//2 74//2
f 73//878 74//878 52//878
f 62//2 75//2 76//2
f 62//878 76//878 75//878
f 62//2 76//2 59//2
f 62//878 59//878 76//878
f 71//2 69//2 68//2
f 71//878 68//878 69//878
f 71//2 68//2 72//2
f 71//878 72//878 68//878
f 66//2 49//2 48//2
f 66//878 48//878 49//878
f 66//2 48//2 63//2
f 66//878 63//878 48//878
f 75//2 3//2 2//2
f 75//878 2//878 3//878
f 75//2 2//2 76//2
f 75//878 76//878 2//878
f 77//3 57//3 56//3
f 77//879 56//879 57//879
f 77//3 56//3 78//3
f 77//879 78//879 56//879
f 55//4 79//4 78//4
f 55//880 78//880 79//880
f 55//4 78//4 56//4
f 55//880 56//880 78//880
f 74//5 80//5 79//5
f 74//881 79//881 80//881
f 74//5 79//5 55//5
f 74//881 55//881 79//881
f 52//6 81//6 80//6
f 52//882 80//882 81//882
f 52//6 80//6 74//6
f 52//882 74//882 80//882
f 51//7 82//7 81//7
f 51//883 81//883 82//883
f 51//7 81//7 52//7
f 51//883 52//883 81//883
f 72//8 83//8 82//8
f 72//884 82//884 83//884
f 72//8 82//8 51//8
f 72//884 51//884 82//884
f 68//9 84//9 83//9
f 68//885 83//885 84//885
f 68//9 83//9 72//9
f 68//885 72//885 83//885
f 67//10 85//10 84//10
f 67//886 84//886 85//886
f 67//10 84//10 68//10
f 67//886 68//886 84//886
f 64//11 86//11 85//11
f 64//887 85//887 86//887
f 64//11 85//11 67//11
f 64//887 67//887 85//887
f 63//12 87//12 86//12
f 63//888 86//888 87//888
f 63//12 86//12 64//12
f 63//888 64//888 86//888
f 48//13 88//13 87//13
f 48//889 87//889 88//889
f 48//13 87//13 63//13
f 48//889 63//889 87//889
f 47//14 89//14 88//14
f 47//890 88//890 89//890
f 47//14 88//14 48//14
f 47//890 48//890 88//890
f 43//15 90//15 89//15
f 43//891 89//891 90//891
f 43//15 89//15 47//15
f 43//891 47//891 89//891
f 14//16 91//16 90//16
f 14//892 90//892 91//892
f 14//16 90//16 43//16
f 14//892 43//892 90//892
f 13//17 92//17 91//17
f 13//893 91//893 92//893
f 13//17 91//17 14//17
f 13//893 14//893 91//893
f 10//18 93//18 92//18
f 10//894 92//894 93//894
f 10//18 92//18 13//18
f 10//894 13//894 92//894
f 9//19 94//19 93//19
f 9//895 93//895 94//895
f 9//19 93//19 10//19
f 9//895 10//895 93//895
f 37//20 95//20 94//20
f 37//896 94//896 95//896
f 37//20 94//20 9//20
f 37//896 9//896 94//896
f 6//21 96//21 95//21
f 6//897 95//897 96//897
f 6//21 95//21 37//21
f 6//897 37//897 95//897
f 5//22 97//22 96//22
f 5//898 96//898 97//898
f 5//22 96//22 6//22
f 5//898 6//898 96//898
f 34//23 98//23 97//23
f 34//899 97//899 98//899
f 34//23 97//23 5//23
f 34//899 5//899 97//899
f 33//24 99//24 98//24
f 33//900 98//900 99//900
f 33//24 98//24 34//24
f 33//900 34//900 98//900
f 30//25 100//25 99//25
f 30//901 99//901 100//901
f 30//25 99//25 33//25
f 30//901 33//901 99//901
f 29//26 101//26 100//26
f 29//902 100//902 101//902
f 29//26 100//26 30//26
f 29//902 30//902 100//902
f 26//27 102//27 101//27
f 26//903 101//903 102//903
f 26//27 101//27 29//27
f 26//903 29//903 101//903
f 25//28 103//28 102//28
f 25//904 102//904 103//904
f 25//28 102//28 26//28
f 25//904 26//904 102//904
f 46//29 104//29 103//29
f 46//905 103//905 104//905
f 46//29 103//29 25//29
f 46//905 25//905 103//905
f 41//30 105//30 104//30
f 41//906 104//906 105//906
f 41//30 104//30 46//30
f 41//906 46//906 104//906
f 22//31 106//31 105//31
f 22//907 105//907 106//907
f 22//31 105//31 41//31
f 22//907 41//907 105//907
f 21//32 107//32 106//32
f 21//908 106//908 107//908
f 21//32 106//32 22//32
f 21//908 22//908 106//908
f 18//33 108//33 107//33
f 18//909 107//909 108//909
f 18//33 107//33 21//33
f 18//909 21//909 107//909
f 17//34 109//34 108//34
f 17//910 108//910 109//910
f 17//34 108//34 18//34
f 17//910 18//910 108//910
f 40//35 110//35 109//35
f 40//911 109//911 110//911
f 40//35 109//35 17//35
f 40//911 17//911 109//911
f 60//36 111//36 110//36
f 60//912 110//912 111//912
f 60//36 110//36 40//36
f 60//912 40//912 110//912
f 59//37 112//37 111//37
f 59//913 111//913 112//913
f 59//37 111//37 60//37
f 59//913 60//913 111//913
f 76//38 113//38 112//38
f 76//914 112//914 113//914
f 76//38 112//38 59//38
f 76//914 59//914 112//914
f 2//39 1//39 113//39
f 2//915 113//915 1//915
f 2//39 113//39 76//39
f 2//915 76//915 113//915
f 96//40 97//40 114//40
f 96//916 114//916 97//916
f 96//40 114//40 115//40
f 96//916 115//916 114//916
f 107//40 108//40 116//40
f 107//916 116//916 108//916
f 107//40 116//40 117//40
f 107//916 117//916 116//916
f 92//40 93//40 118//40
f 92//916 118//916 93//916
f 92//40 118//40 119//40
f 92//916 119//916 118//916
f 94//40 95//40 120//40
f 94//916 120//916 95//916
f 94//40 120//40 121//40
f 94//916 121//916 120//916
f 97//40 98//40 122//40
f 97//916 122//916 98//916
f 97//40 122//40 114//40
f 97//916 114//916 122//916
f 99//40 100//40 123//40
f 99//916 123//916 100//916
f 99//40 123//40 124//40
f 99//916 124//916 123//916
f 103//40 104//40 125//40
f 103//916 125//916 104//916
f 103//40 125//40 126//40
f 103//916 126//916 125//916
f 117//40 127//40 106//40
f 117//916 106//916 127//916
f 117//40 106//40 107//40
f 117//916 107//916 106//916
f 109//40 110//40 128//40
f 109//916 128//916 110//916
f 109//40 128//40 129//40
f 109//916 129//916 128//916
f 89//40 90//40 130//40
f 89//916 130//916 90//916
f 89//40 130//40 131//40
f 89//916 131//916 130//916
f 121//40 118//40 93//40
f 121//916 93//916 118//916
f 121//40 93//40 94//40
f 121//916 94//916 93//916
f 124//40 122//40 98//40
f 124//916 98//916 122//916
f 124//40 98//40 99//40
f 124//916 99//916 98//916
f 101//40 102//40 132//40
f 101//916 132//916 102//916
f 101//40 132//40 133//40
f 101//916 133//916 132//916
f 104//40 105//40 134//40
f 104//916 134//916 105//916
f 104//40 134//40 125//40
f 104//916 125//916 134//916
f 129//40 116//40 108//40
f 129//916 108//916 116//916
f 129//40 108//40 109//40
f 129//916 109//916 108//916
f 90//40 91//40 135//40
f 90//916 135//916 91//916
f 90//40 135//40 130//40
f 90//916 130//916 135//916
f 115//40 120//40 95//40
f 115//916 95//916 120//916
f 115//40 95//40 96//40
f 115//916 96//916 95//916
f 126//40 132//40 102//40
f 126//916 102//916 132//916
f 126//40 102//40 103//40
f 126//916 103//916 102//916
f 110//40 111//40 136//40
f 110//916 136//916 111//916
f 110//40 136//40 128//40
f 110//916 128//916 136//916
f 79//40 80//40 137//40
f 79//916 137//916 80//916
f 79//40 137//40 138//40
f 79//916 138//916 137//916
f 82//40 83//40 139//40
f 82//916 139//916 83//916
f 82//40 139//40 140//40
f 82//916 140//916 139//916
f 119//40 135//40 91//40
f 119//916 91//916 135//916
f 119//40 91//40 92//40
f 119//916 92//916 91//916
f 127//40 134//40 105//40
f 127//916 105//916 134//916
f 127//40 105//40 106//40
f 127//916 106//916 105//916
f 80//40 81//40 141//40
f 80//916 141//916 81//916
f 80//40 141//40 137//40
f 80//916 137//916 141//916
f 83//40 84//40 142//40
f 83//916 142//916 84//916
f 83//40 142//40 139//40
f 83//916 139//916 142//916
f 85//40 86//40 143//40
f 85//916 143//916 86//916
f 85//40 143//40 144//40
f 85//916 144//916 143//916
f 87//40 88//40 145//40
f 87//916 145//916 88//916
f 87//40 145//40 146//40
f 87//916 146//916 145//916
f 133//40 123//40 100//40
f 133//916 100//916 123//916
f 133//40 100//40 101//40
f 133//916 101//916 100//916
f 112//40 113//40 147//40
f 112//916 147//916 113//916
f 112//40 147//40 148//40
f 112//916 148//916 147//916
f 140//40 141//40 81//40
f 140//916 81//916 141//916
f 140//40 81//40 82//40
f 140//916 82//916 81//916
f 146//40 143//40 86//40
f 146//916 86//916 143//916
f 146//40 86//40 87//40
f 146//916 87//916 86//916
f 148//40 136//40 111//40
f 148//916 111//916 136//916
f 148//40 111//40 112//40
f 148//916 112//916 111//916
f 144//40 142//40 84//40
f 144//916 84//916 142//916
f 144//40 84//40 85//40
f 144//916 85//916 84//916
f 113//40 1//40 4//40
f 113//916 4//916 1//916
f 113//40 4//40 147//40
f 113//916 147//916 4//916
f 131//40 145//40 88//40
f 131//916 88//916 145//916
f 131//40 88//40 89//40
f 131//916 89//916 88//916
f 138//40 77//40 78//40
f 138//916 78//916 77//916
f 138//40 78//40 79//40
f 138//916 79//916 78//916
f 75//41 147//41 4//41
f 75//917 4//917 147//917
f 75//41 4//41 3//41
f 75//917 3//917 4//917
f 62//42 148//42 147//42
f 62//918 147//918 148//918
f 62//42 147//42 75//42
f 62//918 75//918 147//918
f 61//43 136//43 148//43
f 61//919 148//919 136//919
f 61//43 148//43 62//43
f 61//919 62//919 148//919
f 39//44 128//44 136//44
f 39//920 136//920 128//920
f 39//44 136//44 61//44
f 39//920 61//920 136//920
f 20//45 129//45 128//45
f 20//921 128//921 129//921
f 20//45 128//45 39//45
f 20//921 39//921 128//921
f 19//46 116//46 129//46
f 19//922 129//922 116//922
f 19//46 129//46 20//46
f 19//922 20//922 129//922
f 24//47 117//47 116//47
f 24//923 116//923 117//923
f 24//47 116//47 19//47
f 24//923 19//923 116//923
f 23//48 127//48 117//48
f 23//924 117//924 127//924
f 23//48 117//48 24//48
f 23//924 24//924 117//924
f 42//49 134//49 127//49
f 42//925 127//925 134//925
f 42//49 127//49 23//49
f 42//925 23//925 127//925
f 45//50 125//50 134//50
f 45//926 134//926 125//926
f 45//50 134//50 42//50
f 45//926 42//926 134//926
f 28//51 126//51 125//51
f 28//927 125//927 126//927
f 28//51 125//51 45//51
f 28//927 45//927 125//927
f 27//52 132//52 126//52
f 27//928 126//928 132//928
f 27//52 126//52 28//52
f 27//928 28//928 126//928
f 32//53 133//53 132//53
f 32//929 132//929 133//929
f 32//53 132//53 27//53
f 32//929 27//929 132//929
f 31//54 123//54 133//54
f 31//930 133//930 123//930
f 31//54 133//54 32//54
f 31//930 32//930 133//930
f 36//55 124//55 123//55
f 36//931 123//931 124//931
f 36//55 123//55 31//55
f 36//931 31//931 123//931
f 35//56 122//56 124//56
f 35//932 124//932 122//932
f 35//56 124//56 36//56
f 35//932 36//932 124//932
f 8//57 114//57 122//57
f 8//933 122//933 114//933
f 8//57 122//57 35//57
f 8//933 35//933 122//933
f 7//58 115//58 114//58
f 7//934 114//934 115//934
f 7//58 114//58 8//58
f 7//934 8//934 114//934
f 38//59 120//59 115//59
f 38//935 115//935 120//935
f 38//59 115//59 7//59
f 38//935 7//935 115//935
f 12//60 121//60 120//60
f 12//936 120//936 121//936
f 12//60 120//60 38//60
f 12//936 38//936 120//936
f 11//61 118//61 121//61
f 11//937 121//937 118//937
f 11//61 121//61 12//61
f 11//937 12//937 121//937
f 16//62 119//62 118//62
f 16//938 118//938 119//938
f 16//62 118//62 11//62
f 16//938 11//938 118//938
f 15//63 135//63 119//63
f 15//939 119//939 135//939
f 15//63 119//63 16//63
f 15//939 16//939 119//939
f 44//64 130//64 135//64
f 44//940 135//940 130//940
f 44//64 135//64 15//64
f 44//940 15//940 135//940
f 50//65 131//65 130//65
f 50//941 130//941 131//941
f 50//65 130//65 44//65
f 50//941 44//941 130//941
f 49//66 145//66 131//66
f 49//942 131//942 145//942
f 49//66 131//66 50//66
f 49//942 50//942 131//942
f 66//67 146//67 145//67
f 66//943 145//943 146//943
f 66//67 145//67 49//67
f 66//943 49//943 145//943
f 65//68 143//68 146//68
f 65//944 146//944 143//944
f 65//68 146//68 66//68
f 65//944 66//944 146//944
f 70//69 144//69 143//69
f 70//945 143//945 144//945
f 70//69 143//69 65//69
f 70//945 65//945 143//945
f 69//70 142//70 144//70
f 69//946 144//946 142//946
f 69//70 144//70 70//70
f 69//946 70//946 144//946
f 71//71 139//71 142//71
f 71//947 142//947 139//947
f 71//71 142//71 69//71
f 71//947 69//947 142//947
f 54//72 140//72 139//72
f 54//948 139//948 140//948
f 54//72 139//72 71//72
f 54//948 71//948 139//948
f 53//73 141//73 140//73
f 53//949 140//949 141//949
f 53//73 140//73 54//73
f 53//949 54//949 140//949
f 73//74 137//74 141//74
f 73//950 141//950 137//950
f 73//74 141//74 53//74
f 73//950 53//950 141//950
f 58//75 138//75 137//75
f 58//951 137//951 138//951
f 58//75 137//75 73//75
f 58//951 73//951 137//951
f 57//76 77//76 138//76
f 57//952 138//952 77//952
f 57//76 138//76 58//76
f 57//952 58//952 138//952
